{
	"asset":{
		"generator":"Khronos glTF Blender I/O v5.2.39",
		"version":"2.0"
	},
	"scene":0,
	"scenes":[
		{
			"name":"Scene",
			"nodes":[
				0
			]
		}
	],
	"nodes":[
		{
			"mesh":0,
			"name":"pPlane1",
			"rotation":[
				0.7071068286895752,
				0,
				0,
				0.7071068286895752
			],
			"scale":[
				0.009999999776482582,
				0.009999999776482582,
				0.009999999776482582
			]
		}
	],
	"materials":[
		{
			"doubleSided":true,
			"name":"Material",
			"normalTexture":{
				"index":0
			},
			"pbrMetallicRoughness":{
				"baseColorTexture":{
					"index":1
				},
				"metallicFactor":0,
				"metallicRoughnessTexture":{
					"index":2
				}
			}
		}
	],
	"meshes":[
		{
			"name":"Mesh",
			"primitives":[
				{
					"attributes":{
						"POSITION":0,
						"NORMAL":1,
						"TEXCOORD_0":2
					},
					"indices":3,
					"material":0
				}
			]
		}
	],
	"textures":[
		{
			"sampler":0,
			"source":0
		},
		{
			"sampler":0,
			"source":1
		},
		{
			"sampler":0,
			"source":2
		}
	],
	"images":[
		{
			"mimeType":"image/jpeg",
			"name":"normal",
			"uri":"normal.jpg"
		},
		{
			"mimeType":"image/jpeg",
			"name":"diffuse",
			"uri":"diffuse.jpg"
		},
		{
			"mimeType":"image/png",
			"name":"roughness",
			"uri":"roughness.png"
		}
	],
	"accessors":[
		{
			"bufferView":0,
			"componentType":5126,
			"count":2601,
			"max":[
				0.5,
				0.5,
				1.1102230246251565e-16
			],
			"min":[
				-0.5,
				-0.5,
				-1.1102230246251565e-16
			],
			"type":"VEC3"
		},
		{
			"bufferView":1,
			"componentType":5126,
			"count":2601,
			"type":"VEC3"
		},
		{
			"bufferView":2,
			"componentType":5126,
			"count":2601,
			"type":"VEC2"
		},
		{
			"bufferView":3,
			"componentType":5123,
			"count":15000,
			"type":"SCALAR"
		}
	],
	"bufferViews":[
		{
			"buffer":0,
			"byteLength":31212,
			"byteOffset":0,
			"target":34962
		},
		{
			"buffer":0,
			"byteLength":31212,
			"byteOffset":31212,
			"target":34962
		},
		{
			"buffer":0,
			"byteLength":20808,
			"byteOffset":62424,
			"target":34962
		},
		{
			"buffer":0,
			"byteLength":30000,
			"byteOffset":83232,
			"target":34963
		}
	],
	"samplers":[
		{
			"magFilter":9729,
			"minFilter":9987
		}
	],
	"buffers":[
		{
			"byteLength":113232,
			"uri":"copplestone.bin"
		}
	]
}
